<svg width="20" height="22" viewBox="0 0 20 22" fill="none" xmlns="http://www.w3.org/2000/svg">
<mask id="mask0_32_518" style="mask-type:alpha" maskUnits="userSpaceOnUse" x="0" y="0" width="20" height="22">
<path fill-rule="evenodd" clip-rule="evenodd" d="M12.7071 0.292908C12.3166 -0.0976158 11.6834 -0.0976158 11.2929 0.292908L0.292893 11.2929C0.105357 11.4804 0 11.7348 0 12V16C0 16.5523 0.447715 17 1 17H5C5.26522 17 5.51957 16.8947 5.70711 16.7071L16.7071 5.70712C17.0976 5.3166 17.0976 4.68343 16.7071 4.29291L12.7071 0.292908ZM2 15V12.4142L12 2.41423L14.5858 5.00002L4.58579 15H2ZM1 20C0.447715 20 0 20.4477 0 21C0 21.5523 0.447715 22 1 22H19C19.5523 22 20 21.5523 20 21C20 20.4477 19.5523 20 19 20H1Z" fill="white"/>
</mask>
<g mask="url(#mask0_32_518)">
<rect x="-2" y="-2" width="24" height="24" fill="#A369EC"/>
</g>
</svg>
