<svg width="15" height="20" viewBox="0 0 15 20" fill="none" xmlns="http://www.w3.org/2000/svg">
<mask id="mask0_29_139" style="mask-type:alpha" maskUnits="userSpaceOnUse" x="0" y="0" width="15" height="20">
<path d="M13.3741 14.2963L10.259 12.7043C9.96522 12.554 9.78261 12.252 9.78261 11.916V10.789C9.85728 10.6957 9.93587 10.5893 10.0171 10.472C10.4211 9.88867 10.7449 9.23933 10.9803 8.539C11.4404 8.32333 11.7391 7.85833 11.7391 7.33333V6C11.7391 5.679 11.6217 5.368 11.413 5.125V3.352C11.4313 3.16867 11.503 2.07733 10.7309 1.177C10.0611 0.396 8.97424 0 7.5 0C6.02576 0 4.93891 0.396 4.26913 1.17667C3.49696 2.077 3.5687 3.16867 3.58696 3.352V5.125C3.37826 5.368 3.26087 5.679 3.26087 6V7.33333C3.26087 7.739 3.4412 8.11733 3.74902 8.36967C4.04772 9.57867 4.67283 10.4897 4.8913 10.782V11.885C4.8913 12.2077 4.71913 12.5037 4.44228 12.6583L1.53326 14.2803C0.587283 14.808 0 15.8193 0 16.9207V18C0 19.582 4.90598 20 7.5 20C10.094 20 15 19.582 15 18V16.9857C15 15.8397 14.3768 14.809 13.3741 14.2963Z" fill="black"/>
</mask>
<g mask="url(#mask0_29_139)">
<rect x="-4" y="-2" width="24" height="24" fill="#A369EC"/>
</g>
</svg>
