<svg width="22" height="14" viewBox="0 0 22 14" fill="none" xmlns="http://www.w3.org/2000/svg">
<mask id="mask0_29_154" style="mask-type:alpha" maskUnits="userSpaceOnUse" x="0" y="0" width="22" height="14">
<path fill-rule="evenodd" clip-rule="evenodd" d="M1 0C0.447754 0 0 0.447754 0 1C0 1.55225 0.447754 2 1 2H13C13.5522 2 14 1.55225 14 1C14 0.447754 13.5522 0 13 0H1ZM18 0C17.4478 0 17 0.447754 17 1C17 1.55225 17.4478 2 18 2H21C21.5522 2 22 1.55225 22 1C22 0.447754 21.5522 0 21 0H18ZM1 12C0.447754 12 0 12.4478 0 13C0 13.5522 0.447754 14 1 14H13C13.5522 14 14 13.5522 14 13C14 12.4478 13.5522 12 13 12H1ZM18 12C17.4478 12 17 12.4478 17 13C17 13.5522 17.4478 14 18 14H21C21.5522 14 22 13.5522 22 13C22 12.4478 21.5522 12 21 12H18ZM1.00751 6C0.451076 6 0 6.44772 0 7C0 7.55228 0.451076 8 1.00751 8H20.9925C21.5489 8 22 7.55228 22 7C22 6.44772 21.5489 6 20.9925 6H1.00751Z" fill="black"/>
</mask>
<g mask="url(#mask0_29_154)">
<rect x="-1" y="-5" width="24" height="24" fill="#A369EC"/>
</g>
</svg>
