<svg width="21" height="20" viewBox="0 0 21 20" fill="none" xmlns="http://www.w3.org/2000/svg">
<mask id="mask0_29_143" style="mask-type:alpha" maskUnits="userSpaceOnUse" x="0" y="0" width="21" height="20">
<path fill-rule="evenodd" clip-rule="evenodd" d="M13.9561 8.69121C14.2966 6.78376 12.9562 5.06451 12.1496 3.1877C11.8655 2.52654 11.5197 1.88967 11.2604 1.22012C11.1093 0.831287 10.9406 0.342138 11.489 0.0958283C12.0278 -0.145855 12.391 0.0874446 12.6674 0.595385C14.5621 4.07378 16.2532 7.61347 16.4769 11.6472C16.5247 12.5076 16.7126 13.361 16.7524 14.2213C16.7905 15.0429 17.1811 15.5671 17.9113 15.8946C18.533 16.1733 19.1682 16.4251 19.7777 16.7263C20.7475 17.2051 21.3249 18.5499 20.8041 19.3779C20.2026 20.3345 19.1874 19.9804 18.4265 19.6754C17.4434 19.2814 16.5716 18.6214 15.6484 18.0816C14.8094 17.5913 14.0016 17.0325 13.1176 16.6379C11.091 15.733 10.7757 13.9915 10.9624 12.1803C11.125 10.6027 11.3191 9.03639 11.3064 7.44868C11.3017 6.92513 11.2636 6.27235 11.9974 6.22465C12.7857 6.17319 12.7264 6.89651 12.7754 7.3767C12.8583 8.18674 12.8019 9.0098 12.8686 9.82216C12.902 10.2237 12.9194 10.8325 13.5018 10.7796C14.0865 10.7264 13.9225 10.1298 13.9523 9.72386C13.9706 9.48478 13.9561 9.24339 13.9561 8.69121Z" fill="black"/>
<path fill-rule="evenodd" clip-rule="evenodd" d="M7.04388 8.69121C6.70342 6.78376 8.04375 5.06451 8.85037 3.1877C9.13449 2.52654 9.48027 1.88967 9.7396 1.22012C9.89066 0.831287 10.0594 0.342138 9.51095 0.0958283C8.97222 -0.145855 8.60904 0.0874446 8.33259 0.595385C6.43789 4.07378 4.74675 7.61347 4.52312 11.6472C4.47532 12.5076 4.28739 13.361 4.24756 14.2213C4.2095 15.0429 3.81887 15.5671 3.08866 15.8946C2.46703 16.1733 1.83182 16.4251 1.22228 16.7263C0.252508 17.2051 -0.324872 18.5499 0.195862 19.3779C0.797435 20.3345 1.81264 19.9804 2.57354 19.6754C3.55659 19.2814 4.42841 18.6214 5.35157 18.0816C6.19065 17.5913 6.99845 17.0325 7.88237 16.6379C9.90895 15.733 10.2243 13.9915 10.0376 12.1803C9.87503 10.6027 9.68089 9.03639 9.69358 7.44868C9.6983 6.92513 9.73636 6.27235 9.00261 6.22465C8.21428 6.17319 8.27358 6.89651 8.22461 7.3767C8.1417 8.18674 8.19805 9.0098 8.13138 9.82216C8.09804 10.2237 8.08063 10.8325 7.49824 10.7796C6.91348 10.7264 7.07752 10.1298 7.04772 9.72386C7.02943 9.48478 7.04388 9.24339 7.04388 8.69121Z" fill="black"/>
</mask>
<g mask="url(#mask0_29_143)">
<rect x="-2" y="-2" width="24" height="24" fill="#A369EC"/>
</g>
</svg>
